# xmcd
#
# Track frame offsets:
#       150
#       19440
#       38130
#       55066
#       72532
#       93740
#       114347
#       130210
#       150338
#       169025
#       187112
#       208678
#
# Disc length: 2987 seconds
#
# Revision: 0
# Processed by: cddbd v1.4PL0 Copyright (c) Steve Scherf et al.
# Submitted via: CD-DA_X-Tractor v0.21
#
DISCID=a80ba90c
DTITLE=John Called Mark - The Money
DYEAR=1900
DGENRE=
TTITLE0=Ride on Me
TTITLE1=Latter Rain
TTITLE2=Holy Man
TTITLE3=The Money
TTITLE4=Liftin' My Eyes
TTITLE5=Preacher Man
TTITLE6=The Holy One
TTITLE7=Shadows of the Road
TTITLE8=Back to Memphis
TTITLE9=Gift of Lauren
TTITLE10=Muddy Highway
TTITLE11=He's Comin' Home
EXTD=
EXTT0=
EXTT1=
EXTT2=
EXTT3=
EXTT4=
EXTT5=
EXTT6=
EXTT7=
EXTT8=
EXTT9=
EXTT10=
EXTT11=
PLAYORDER=
